<svg xmlns="http://www.w3.org/2000/svg" version="1.1" width="2080" height="2080">
<polyline points="32,2048 64,2048 64,2016 32,2016 32,1984 32,1952 64,1952 64,1984 96,1984 96,1952 128,1952 128,1984 128,2016 96,2016 96,2048 128,2048 160,2048 160,2016 192,2016 192,2048 224,2048 256,2048 256,2016 224,2016 224,1984 256,1984 256,1952 224,1952 192,1952 192,1984 160,1984 160,1952 160,1920 160,1888 192,1888 192,1920 224,1920 256,1920 256,1888 224,1888 224,1856 256,1856 256,1824 224,1824 192,1824 192,1856 160,1856 160,1824 128,1824 96,1824 96,1856 128,1856 128,1888 128,1920 96,1920 96,1888 64,1888 64,1920 32,1920 32,1888 32,1856 64,1856 64,1824 32,1824 32,1792 32,1760 64,1760 64,1792 96,1792 128,1792 128,1760 96,1760 96,1728 128,1728 128,1696 96,1696 64,1696 64,1728 32,1728 32,1696 32,1664 64,1664 64,1632 32,1632 32,1600 32,1568 64,1568 64,1600 96,1600 96,1568 128,1568 128,1600 128,1632 96,1632 96,1664 128,1664 160,1664 192,1664 192,1632 160,1632 160,1600 160,1568 192,1568 192,1600 224,1600 224,1568 256,1568 256,1600 256,1632 224,1632 224,1664 256,1664 256,1696 256,1728 224,1728 224,1696 192,1696 160,1696 160,1728 192,1728 192,1760 160,1760 160,1792 192,1792 224,1792 224,1760 256,1760 256,1792 288,1792 288,1760 320,1760 320,1792 352,1792 384,1792 384,1760 352,1760 352,1728 384,1728 384,1696 352,1696 320,1696 320,1728 288,1728 288,1696 288,1664 320,1664 320,1632 288,1632 288,1600 288,1568 320,1568 320,1600 352,1600 352,1568 384,1568 384,1600 384,1632 352,1632 352,1664 384,1664 416,1664 448,1664 448,1632 416,1632 416,1600 416,1568 448,1568 448,1600 480,1600 480,1568 512,1568 512,1600 512,1632 480,1632 480,1664 512,1664 512,1696 512,1728 480,1728 480,1696 448,1696 416,1696 416,1728 448,1728 448,1760 416,1760 416,1792 448,1792 480,1792 480,1760 512,1760 512,1792 512,1824 480,1824 480,1856 512,1856 512,1888 512,1920 480,1920 480,1888 448,1888 448,1920 416,1920 416,1888 416,1856 448,1856 448,1824 416,1824 384,1824 384,1856 352,1856 352,1824 320,1824 288,1824 288,1856 320,1856 320,1888 288,1888 288,1920 320,1920 352,1920 352,1888 384,1888 384,1920 384,1952 384,1984 352,1984 352,1952 320,1952 288,1952 288,1984 320,1984 320,2016 288,2016 288,2048 320,2048 352,2048 352,2016 384,2016 384,2048 416,2048 448,2048 448,2016 416,2016 416,1984 416,1952 448,1952 448,1984 480,1984 480,1952 512,1952 512,1984 512,2016 480,2016 480,2048 512,2048 544,2048 544,2016 576,2016 576,2048 608,2048 640,2048 640,2016 608,2016 608,1984 640,1984 640,1952 608,1952 576,1952 576,1984 544,1984 544,1952 544,1920 576,1920 576,1888 544,1888 544,1856 544,1824 576,1824 576,1856 608,1856 608,1824 640,1824 640,1856 640,1888 608,1888 608,1920 640,1920 672,1920 704,1920 704,1888 672,1888 672,1856 672,1824 704,1824 704,1856 736,1856 736,1824 768,1824 768,1856 768,1888 736,1888 736,1920 768,1920 768,1952 768,1984 736,1984 736,1952 704,1952 672,1952 672,1984 704,1984 704,2016 672,2016 672,2048 704,2048 736,2048 736,2016 768,2016 768,2048 800,2048 832,2048 832,2016 800,2016 800,1984 800,1952 832,1952 832,1984 864,1984 864,1952 896,1952 896,1984 896,2016 864,2016 864,2048 896,2048 928,2048 928,2016 960,2016 960,2048 992,2048 1024,2048 1024,2016 992,2016 992,1984 1024,1984 1024,1952 992,1952 960,1952 960,1984 928,1984 928,1952 928,1920 928,1888 960,1888 960,1920 992,1920 1024,1920 1024,1888 992,1888 992,1856 1024,1856 1024,1824 992,1824 960,1824 960,1856 928,1856 928,1824 896,1824 864,1824 864,1856 896,1856 896,1888 896,1920 864,1920 864,1888 832,1888 832,1920 800,1920 800,1888 800,1856 832,1856 832,1824 800,1824 800,1792 832,1792 832,1760 800,1760 800,1728 800,1696 832,1696 832,1728 864,1728 864,1696 896,1696 896,1728 896,1760 864,1760 864,1792 896,1792 928,1792 928,1760 960,1760 960,1792 992,1792 1024,1792 1024,1760 992,1760 992,1728 1024,1728 1024,1696 992,1696 960,1696 960,1728 928,1728 928,1696 928,1664 928,1632 960,1632 960,1664 992,1664 1024,1664 1024,1632 992,1632 992,1600 1024,1600 1024,1568 992,1568 960,1568 960,1600 928,1600 928,1568 896,1568 864,1568 864,1600 896,1600 896,1632 896,1664 864,1664 864,1632 832,1632 832,1664 800,1664 800,1632 800,1600 832,1600 832,1568 800,1568 768,1568 768,1600 736,1600 736,1568 704,1568 672,1568 672,1600 704,1600 704,1632 672,1632 672,1664 704,1664 736,1664 736,1632 768,1632 768,1664 768,1696 736,1696 736,1728 768,1728 768,1760 768,1792 736,1792 736,1760 704,1760 704,1792 672,1792 672,1760 672,1728 704,1728 704,1696 672,1696 640,1696 608,1696 608,1728 640,1728 640,1760 640,1792 608,1792 608,1760 576,1760 576,1792 544,1792 544,1760 544,1728 576,1728 576,1696 544,1696 544,1664 544,1632 576,1632 576,1664 608,1664 640,1664 640,1632 608,1632 608,1600 640,1600 640,1568 608,1568 576,1568 576,1600 544,1600 544,1568 544,1536 544,1504 576,1504 576,1536 608,1536 640,1536 640,1504 608,1504 608,1472 640,1472 640,1440 608,1440 576,1440 576,1472 544,1472 544,1440 544,1408 576,1408 576,1376 544,1376 544,1344 544,1312 576,1312 576,1344 608,1344 608,1312 640,1312 640,1344 640,1376 608,1376 608,1408 640,1408 672,1408 704,1408 704,1376 672,1376 672,1344 672,1312 704,1312 704,1344 736,1344 736,1312 768,1312 768,1344 768,1376 736,1376 736,1408 768,1408 768,1440 768,1472 736,1472 736,1440 704,1440 672,1440 672,1472 704,1472 704,1504 672,1504 672,1536 704,1536 736,1536 736,1504 768,1504 768,1536 800,1536 832,1536 832,1504 800,1504 800,1472 800,1440 832,1440 832,1472 864,1472 864,1440 896,1440 896,1472 896,1504 864,1504 864,1536 896,1536 928,1536 928,1504 960,1504 960,1536 992,1536 1024,1536 1024,1504 992,1504 992,1472 1024,1472 1024,1440 992,1440 960,1440 960,1472 928,1472 928,1440 928,1408 928,1376 960,1376 960,1408 992,1408 1024,1408 1024,1376 992,1376 992,1344 1024,1344 1024,1312 992,1312 960,1312 960,1344 928,1344 928,1312 896,1312 864,1312 864,1344 896,1344 896,1376 896,1408 864,1408 864,1376 832,1376 832,1408 800,1408 800,1376 800,1344 832,1344 832,1312 800,1312 800,1280 832,1280 832,1248 800,1248 800,1216 800,1184 832,1184 832,1216 864,1216 864,1184 896,1184 896,1216 896,1248 864,1248 864,1280 896,1280 928,1280 928,1248 960,1248 960,1280 992,1280 1024,1280 1024,1248 992,1248 992,1216 1024,1216 1024,1184 992,1184 960,1184 960,1216 928,1216 928,1184 928,1152 928,1120 960,1120 960,1152 992,1152 1024,1152 1024,1120 992,1120 992,1088 1024,1088 1024,1056 992,1056 960,1056 960,1088 928,1088 928,1056 896,1056 864,1056 864,1088 896,1088 896,1120 896,1152 864,1152 864,1120 832,1120 832,1152 800,1152 800,1120 800,1088 832,1088 832,1056 800,1056 768,1056 768,1088 736,1088 736,1056 704,1056 672,1056 672,1088 704,1088 704,1120 672,1120 672,1152 704,1152 736,1152 736,1120 768,1120 768,1152 768,1184 736,1184 736,1216 768,1216 768,1248 768,1280 736,1280 736,1248 704,1248 704,1280 672,1280 672,1248 672,1216 704,1216 704,1184 672,1184 640,1184 608,1184 608,1216 640,1216 640,1248 640,1280 608,1280 608,1248 576,1248 576,1280 544,1280 544,1248 544,1216 576,1216 576,1184 544,1184 544,1152 544,1120 576,1120 576,1152 608,1152 640,1152 640,1120 608,1120 608,1088 640,1088 640,1056 608,1056 576,1056 576,1088 544,1088 544,1056 512,1056 480,1056 480,1088 512,1088 512,1120 512,1152 480,1152 480,1120 448,1120 448,1152 416,1152 416,1120 416,1088 448,1088 448,1056 416,1056 384,1056 384,1088 352,1088 352,1056 320,1056 288,1056 288,1088 320,1088 320,1120 288,1120 288,1152 320,1152 352,1152 352,1120 384,1120 384,1152 384,1184 384,1216 352,1216 352,1184 320,1184 288,1184 288,1216 320,1216 320,1248 288,1248 288,1280 320,1280 352,1280 352,1248 384,1248 384,1280 416,1280 448,1280 448,1248 416,1248 416,1216 416,1184 448,1184 448,1216 480,1216 480,1184 512,1184 512,1216 512,1248 480,1248 480,1280 512,1280 512,1312 512,1344 480,1344 480,1312 448,1312 416,1312 416,1344 448,1344 448,1376 416,1376 416,1408 448,1408 480,1408 480,1376 512,1376 512,1408 512,1440 480,1440 480,1472 512,1472 512,1504 512,1536 480,1536 480,1504 448,1504 448,1536 416,1536 416,1504 416,1472 448,1472 448,1440 416,1440 384,1440 352,1440 352,1472 384,1472 384,1504 384,1536 352,1536 352,1504 320,1504 320,1536 288,1536 288,1504 288,1472 320,1472 320,1440 288,1440 288,1408 288,1376 320,1376 320,1408 352,1408 384,1408 384,1376 352,1376 352,1344 384,1344 384,1312 352,1312 320,1312 320,1344 288,1344 288,1312 256,1312 256,1344 224,1344 224,1312 192,1312 160,1312 160,1344 192,1344 192,1376 160,1376 160,1408 192,1408 224,1408 224,1376 256,1376 256,1408 256,1440 224,1440 224,1472 256,1472 256,1504 256,1536 224,1536 224,1504 192,1504 192,1536 160,1536 160,1504 160,1472 192,1472 192,1440 160,1440 128,1440 96,1440 96,1472 128,1472 128,1504 128,1536 96,1536 96,1504 64,1504 64,1536 32,1536 32,1504 32,1472 64,1472 64,1440 32,1440 32,1408 32,1376 64,1376 64,1408 96,1408 128,1408 128,1376 96,1376 96,1344 128,1344 128,1312 96,1312 64,1312 64,1344 32,1344 32,1312 32,1280 64,1280 64,1248 32,1248 32,1216 32,1184 64,1184 64,1216 96,1216 96,1184 128,1184 128,1216 128,1248 96,1248 96,1280 128,1280 160,1280 160,1248 192,1248 192,1280 224,1280 256,1280 256,1248 224,1248 224,1216 256,1216 256,1184 224,1184 192,1184 192,1216 160,1216 160,1184 160,1152 160,1120 192,1120 192,1152 224,1152 256,1152 256,1120 224,1120 224,1088 256,1088 256,1056 224,1056 192,1056 192,1088 160,1088 160,1056 128,1056 96,1056 96,1088 128,1088 128,1120 128,1152 96,1152 96,1120 64,1120 64,1152 32,1152 32,1120 32,1088 64,1088 64,1056 32,1056 32,1024 32,992 64,992 64,1024 96,1024 128,1024 128,992 96,992 96,960 128,960 128,928 96,928 64,928 64,960 32,960 32,928 32,896 64,896 64,864 32,864 32,832 32,800 64,800 64,832 96,832 96,800 128,800 128,832 128,864 96,864 96,896 128,896 160,896 192,896 192,864 160,864 160,832 160,800 192,800 192,832 224,832 224,800 256,800 256,832 256,864 224,864 224,896 256,896 256,928 256,960 224,960 224,928 192,928 160,928 160,960 192,960 192,992 160,992 160,1024 192,1024 224,1024 224,992 256,992 256,1024 288,1024 320,1024 320,992 288,992 288,960 288,928 320,928 320,960 352,960 352,928 384,928 384,960 384,992 352,992 352,1024 384,1024 416,1024 416,992 448,992 448,1024 480,1024 512,1024 512,992 480,992 480,960 512,960 512,928 480,928 448,928 448,960 416,960 416,928 416,896 416,864 448,864 448,896 480,896 512,896 512,864 480,864 480,832 512,832 512,800 480,800 448,800 448,832 416,832 416,800 384,800 352,800 352,832 384,832 384,864 384,896 352,896 352,864 320,864 320,896 288,896 288,864 288,832 320,832 320,800 288,800 288,768 320,768 320,736 288,736 288,704 288,672 320,672 320,704 352,704 352,672 384,672 384,704 384,736 352,736 352,768 384,768 416,768 416,736 448,736 448,768 480,768 512,768 512,736 480,736 480,704 512,704 512,672 480,672 448,672 448,704 416,704 416,672 416,640 416,608 448,608 448,640 480,640 512,640 512,608 480,608 480,576 512,576 512,544 480,544 448,544 448,576 416,576 416,544 384,544 352,544 352,576 384,576 384,608 384,640 352,640 352,608 320,608 320,640 288,640 288,608 288,576 320,576 320,544 288,544 256,544 256,576 224,576 224,544 192,544 160,544 160,576 192,576 192,608 160,608 160,640 192,640 224,640 224,608 256,608 256,640 256,672 224,672 224,704 256,704 256,736 256,768 224,768 224,736 192,736 192,768 160,768 160,736 160,704 192,704 192,672 160,672 128,672 96,672 96,704 128,704 128,736 128,768 96,768 96,736 64,736 64,768 32,768 32,736 32,704 64,704 64,672 32,672 32,640 32,608 64,608 64,640 96,640 128,640 128,608 96,608 96,576 128,576 128,544 96,544 64,544 64,576 32,576 32,544 32,512 64,512 64,480 32,480 32,448 32,416 64,416 64,448 96,448 96,416 128,416 128,448 128,480 96,480 96,512 128,512 160,512 160,480 192,480 192,512 224,512 256,512 256,480 224,480 224,448 256,448 256,416 224,416 192,416 192,448 160,448 160,416 160,384 160,352 192,352 192,384 224,384 256,384 256,352 224,352 224,320 256,320 256,288 224,288 192,288 192,320 160,320 160,288 128,288 96,288 96,320 128,320 128,352 128,384 96,384 96,352 64,352 64,384 32,384 32,352 32,320 64,320 64,288 32,288 32,256 32,224 64,224 64,256 96,256 128,256 128,224 96,224 96,192 128,192 128,160 96,160 64,160 64,192 32,192 32,160 32,128 64,128 64,96 32,96 32,64 32,32 64,32 64,64 96,64 96,32 128,32 128,64 128,96 96,96 96,128 128,128 160,128 192,128 192,96 160,96 160,64 160,32 192,32 192,64 224,64 224,32 256,32 256,64 256,96 224,96 224,128 256,128 256,160 256,192 224,192 224,160 192,160 160,160 160,192 192,192 192,224 160,224 160,256 192,256 224,256 224,224 256,224 256,256 288,256 288,224 320,224 320,256 352,256 384,256 384,224 352,224 352,192 384,192 384,160 352,160 320,160 320,192 288,192 288,160 288,128 320,128 320,96 288,96 288,64 288,32 320,32 320,64 352,64 352,32 384,32 384,64 384,96 352,96 352,128 384,128 416,128 448,128 448,96 416,96 416,64 416,32 448,32 448,64 480,64 480,32 512,32 512,64 512,96 480,96 480,128 512,128 512,160 512,192 480,192 480,160 448,160 416,160 416,192 448,192 448,224 416,224 416,256 448,256 480,256 480,224 512,224 512,256 512,288 480,288 480,320 512,320 512,352 512,384 480,384 480,352 448,352 448,384 416,384 416,352 416,320 448,320 448,288 416,288 384,288 384,320 352,320 352,288 320,288 288,288 288,320 320,320 320,352 288,352 288,384 320,384 352,384 352,352 384,352 384,384 384,416 384,448 352,448 352,416 320,416 288,416 288,448 320,448 320,480 288,480 288,512 320,512 352,512 352,480 384,480 384,512 416,512 448,512 448,480 416,480 416,448 416,416 448,416 448,448 480,448 480,416 512,416 512,448 512,480 480,480 480,512 512,512 544,512 576,512 576,480 544,480 544,448 544,416 576,416 576,448 608,448 608,416 640,416 640,448 640,480 608,480 608,512 640,512 672,512 672,480 704,480 704,512 736,512 768,512 768,480 736,480 736,448 768,448 768,416 736,416 704,416 704,448 672,448 672,416 672,384 672,352 704,352 704,384 736,384 768,384 768,352 736,352 736,320 768,320 768,288 736,288 704,288 704,320 672,320 672,288 640,288 608,288 608,320 640,320 640,352 640,384 608,384 608,352 576,352 576,384 544,384 544,352 544,320 576,320 576,288 544,288 544,256 544,224 576,224 576,256 608,256 640,256 640,224 608,224 608,192 640,192 640,160 608,160 576,160 576,192 544,192 544,160 544,128 576,128 576,96 544,96 544,64 544,32 576,32 576,64 608,64 608,32 640,32 640,64 640,96 608,96 608,128 640,128 672,128 704,128 704,96 672,96 672,64 672,32 704,32 704,64 736,64 736,32 768,32 768,64 768,96 736,96 736,128 768,128 768,160 768,192 736,192 736,160 704,160 672,160 672,192 704,192 704,224 672,224 672,256 704,256 736,256 736,224 768,224 768,256 800,256 800,224 832,224 832,256 864,256 896,256 896,224 864,224 864,192 896,192 896,160 864,160 832,160 832,192 800,192 800,160 800,128 832,128 832,96 800,96 800,64 800,32 832,32 832,64 864,64 864,32 896,32 896,64 896,96 864,96 864,128 896,128 928,128 960,128 960,96 928,96 928,64 928,32 960,32 960,64 992,64 992,32 1024,32 1024,64 1024,96 992,96 992,128 1024,128 1024,160 1024,192 992,192 992,160 960,160 928,160 928,192 960,192 960,224 928,224 928,256 960,256 992,256 992,224 1024,224 1024,256 1024,288 992,288 992,320 1024,320 1024,352 1024,384 992,384 992,352 960,352 960,384 928,384 928,352 928,320 960,320 960,288 928,288 896,288 896,320 864,320 864,288 832,288 800,288 800,320 832,320 832,352 800,352 800,384 832,384 864,384 864,352 896,352 896,384 896,416 896,448 864,448 864,416 832,416 800,416 800,448 832,448 832,480 800,480 800,512 832,512 864,512 864,480 896,480 896,512 928,512 960,512 960,480 928,480 928,448 928,416 960,416 960,448 992,448 992,416 1024,416 1024,448 1024,480 992,480 992,512 1024,512 1024,544 1024,576 992,576 992,544 960,544 928,544 928,576 960,576 960,608 928,608 928,640 960,640 992,640 992,608 1024,608 1024,640 1024,672 992,672 992,704 1024,704 1024,736 1024,768 992,768 992,736 960,736 960,768 928,768 928,736 928,704 960,704 960,672 928,672 896,672 864,672 864,704 896,704 896,736 896,768 864,768 864,736 832,736 832,768 800,768 800,736 800,704 832,704 832,672 800,672 800,640 800,608 832,608 832,640 864,640 896,640 896,608 864,608 864,576 896,576 896,544 864,544 832,544 832,576 800,576 800,544 768,544 736,544 736,576 768,576 768,608 768,640 736,640 736,608 704,608 704,640 672,640 672,608 672,576 704,576 704,544 672,544 640,544 640,576 608,576 608,544 576,544 544,544 544,576 576,576 576,608 544,608 544,640 576,640 608,640 608,608 640,608 640,640 640,672 640,704 608,704 608,672 576,672 544,672 544,704 576,704 576,736 544,736 544,768 576,768 608,768 608,736 640,736 640,768 672,768 704,768 704,736 672,736 672,704 672,672 704,672 704,704 736,704 736,672 768,672 768,704 768,736 736,736 736,768 768,768 768,800 736,800 736,832 768,832 768,864 768,896 736,896 736,864 704,864 704,896 672,896 672,864 672,832 704,832 704,800 672,800 640,800 640,832 608,832 608,800 576,800 544,800 544,832 576,832 576,864 544,864 544,896 576,896 608,896 608,864 640,864 640,896 640,928 640,960 608,960 608,928 576,928 544,928 544,960 576,960 576,992 544,992 544,1024 576,1024 608,1024 608,992 640,992 640,1024 672,1024 704,1024 704,992 672,992 672,960 672,928 704,928 704,960 736,960 736,928 768,928 768,960 768,992 736,992 736,1024 768,1024 800,1024 800,992 832,992 832,1024 864,1024 896,1024 896,992 864,992 864,960 896,960 896,928 864,928 832,928 832,960 800,960 800,928 800,896 832,896 832,864 800,864 800,832 800,800 832,800 832,832 864,832 864,800 896,800 896,832 896,864 864,864 864,896 896,896 928,896 960,896 960,864 928,864 928,832 928,800 960,800 960,832 992,832 992,800 1024,800 1024,832 1024,864 992,864 992,896 1024,896 1024,928 1024,960 992,960 992,928 960,928 928,928 928,960 960,960 960,992 928,992 928,1024 960,1024 992,1024 992,992 1024,992 1024,1024 1056,1024 1056,992 1088,992 1088,1024 1120,1024 1152,1024 1152,992 1120,992 1120,960 1152,960 1152,928 1120,928 1088,928 1088,960 1056,960 1056,928 1056,896 1088,896 1088,864 1056,864 1056,832 1056,800 1088,800 1088,832 1120,832 1120,800 1152,800 1152,832 1152,864 1120,864 1120,896 1152,896 1184,896 1216,896 1216,864 1184,864 1184,832 1184,800 1216,800 1216,832 1248,832 1248,800 1280,800 1280,832 1280,864 1248,864 1248,896 1280,896 1280,928 1280,960 1248,960 1248,928 1216,928 1184,928 1184,960 1216,960 1216,992 1184,992 1184,1024 1216,1024 1248,1024 1248,992 1280,992 1280,1024 1312,1024 1344,1024 1344,992 1312,992 1312,960 1312,928 1344,928 1344,960 1376,960 1376,928 1408,928 1408,960 1408,992 1376,992 1376,1024 1408,1024 1440,1024 1440,992 1472,992 1472,1024 1504,1024 1536,1024 1536,992 1504,992 1504,960 1536,960 1536,928 1504,928 1472,928 1472,960 1440,960 1440,928 1440,896 1440,864 1472,864 1472,896 1504,896 1536,896 1536,864 1504,864 1504,832 1536,832 1536,800 1504,800 1472,800 1472,832 1440,832 1440,800 1408,800 1376,800 1376,832 1408,832 1408,864 1408,896 1376,896 1376,864 1344,864 1344,896 1312,896 1312,864 1312,832 1344,832 1344,800 1312,800 1312,768 1344,768 1344,736 1312,736 1312,704 1312,672 1344,672 1344,704 1376,704 1376,672 1408,672 1408,704 1408,736 1376,736 1376,768 1408,768 1440,768 1440,736 1472,736 1472,768 1504,768 1536,768 1536,736 1504,736 1504,704 1536,704 1536,672 1504,672 1472,672 1472,704 1440,704 1440,672 1440,640 1440,608 1472,608 1472,640 1504,640 1536,640 1536,608 1504,608 1504,576 1536,576 1536,544 1504,544 1472,544 1472,576 1440,576 1440,544 1408,544 1376,544 1376,576 1408,576 1408,608 1408,640 1376,640 1376,608 1344,608 1344,640 1312,640 1312,608 1312,576 1344,576 1344,544 1312,544 1280,544 1280,576 1248,576 1248,544 1216,544 1184,544 1184,576 1216,576 1216,608 1184,608 1184,640 1216,640 1248,640 1248,608 1280,608 1280,640 1280,672 1248,672 1248,704 1280,704 1280,736 1280,768 1248,768 1248,736 1216,736 1216,768 1184,768 1184,736 1184,704 1216,704 1216,672 1184,672 1152,672 1120,672 1120,704 1152,704 1152,736 1152,768 1120,768 1120,736 1088,736 1088,768 1056,768 1056,736 1056,704 1088,704 1088,672 1056,672 1056,640 1056,608 1088,608 1088,640 1120,640 1152,640 1152,608 1120,608 1120,576 1152,576 1152,544 1120,544 1088,544 1088,576 1056,576 1056,544 1056,512 1088,512 1088,480 1056,480 1056,448 1056,416 1088,416 1088,448 1120,448 1120,416 1152,416 1152,448 1152,480 1120,480 1120,512 1152,512 1184,512 1184,480 1216,480 1216,512 1248,512 1280,512 1280,480 1248,480 1248,448 1280,448 1280,416 1248,416 1216,416 1216,448 1184,448 1184,416 1184,384 1184,352 1216,352 1216,384 1248,384 1280,384 1280,352 1248,352 1248,320 1280,320 1280,288 1248,288 1216,288 1216,320 1184,320 1184,288 1152,288 1120,288 1120,320 1152,320 1152,352 1152,384 1120,384 1120,352 1088,352 1088,384 1056,384 1056,352 1056,320 1088,320 1088,288 1056,288 1056,256 1056,224 1088,224 1088,256 1120,256 1152,256 1152,224 1120,224 1120,192 1152,192 1152,160 1120,160 1088,160 1088,192 1056,192 1056,160 1056,128 1088,128 1088,96 1056,96 1056,64 1056,32 1088,32 1088,64 1120,64 1120,32 1152,32 1152,64 1152,96 1120,96 1120,128 1152,128 1184,128 1216,128 1216,96 1184,96 1184,64 1184,32 1216,32 1216,64 1248,64 1248,32 1280,32 1280,64 1280,96 1248,96 1248,128 1280,128 1280,160 1280,192 1248,192 1248,160 1216,160 1184,160 1184,192 1216,192 1216,224 1184,224 1184,256 1216,256 1248,256 1248,224 1280,224 1280,256 1312,256 1312,224 1344,224 1344,256 1376,256 1408,256 1408,224 1376,224 1376,192 1408,192 1408,160 1376,160 1344,160 1344,192 1312,192 1312,160 1312,128 1344,128 1344,96 1312,96 1312,64 1312,32 1344,32 1344,64 1376,64 1376,32 1408,32 1408,64 1408,96 1376,96 1376,128 1408,128 1440,128 1472,128 1472,96 1440,96 1440,64 1440,32 1472,32 1472,64 1504,64 1504,32 1536,32 1536,64 1536,96 1504,96 1504,128 1536,128 1536,160 1536,192 1504,192 1504,160 1472,160 1440,160 1440,192 1472,192 1472,224 1440,224 1440,256 1472,256 1504,256 1504,224 1536,224 1536,256 1536,288 1504,288 1504,320 1536,320 1536,352 1536,384 1504,384 1504,352 1472,352 1472,384 1440,384 1440,352 1440,320 1472,320 1472,288 1440,288 1408,288 1408,320 1376,320 1376,288 1344,288 1312,288 1312,320 1344,320 1344,352 1312,352 1312,384 1344,384 1376,384 1376,352 1408,352 1408,384 1408,416 1408,448 1376,448 1376,416 1344,416 1312,416 1312,448 1344,448 1344,480 1312,480 1312,512 1344,512 1376,512 1376,480 1408,480 1408,512 1440,512 1472,512 1472,480 1440,480 1440,448 1440,416 1472,416 1472,448 1504,448 1504,416 1536,416 1536,448 1536,480 1504,480 1504,512 1536,512 1568,512 1600,512 1600,480 1568,480 1568,448 1568,416 1600,416 1600,448 1632,448 1632,416 1664,416 1664,448 1664,480 1632,480 1632,512 1664,512 1696,512 1696,480 1728,480 1728,512 1760,512 1792,512 1792,480 1760,480 1760,448 1792,448 1792,416 1760,416 1728,416 1728,448 1696,448 1696,416 1696,384 1696,352 1728,352 1728,384 1760,384 1792,384 1792,352 1760,352 1760,320 1792,320 1792,288 1760,288 1728,288 1728,320 1696,320 1696,288 1664,288 1632,288 1632,320 1664,320 1664,352 1664,384 1632,384 1632,352 1600,352 1600,384 1568,384 1568,352 1568,320 1600,320 1600,288 1568,288 1568,256 1568,224 1600,224 1600,256 1632,256 1664,256 1664,224 1632,224 1632,192 1664,192 1664,160 1632,160 1600,160 1600,192 1568,192 1568,160 1568,128 1600,128 1600,96 1568,96 1568,64 1568,32 1600,32 1600,64 1632,64 1632,32 1664,32 1664,64 1664,96 1632,96 1632,128 1664,128 1696,128 1728,128 1728,96 1696,96 1696,64 1696,32 1728,32 1728,64 1760,64 1760,32 1792,32 1792,64 1792,96 1760,96 1760,128 1792,128 1792,160 1792,192 1760,192 1760,160 1728,160 1696,160 1696,192 1728,192 1728,224 1696,224 1696,256 1728,256 1760,256 1760,224 1792,224 1792,256 1824,256 1824,224 1856,224 1856,256 1888,256 1920,256 1920,224 1888,224 1888,192 1920,192 1920,160 1888,160 1856,160 1856,192 1824,192 1824,160 1824,128 1856,128 1856,96 1824,96 1824,64 1824,32 1856,32 1856,64 1888,64 1888,32 1920,32 1920,64 1920,96 1888,96 1888,128 1920,128 1952,128 1984,128 1984,96 1952,96 1952,64 1952,32 1984,32 1984,64 2016,64 2016,32 2048,32 2048,64 2048,96 2016,96 2016,128 2048,128 2048,160 2048,192 2016,192 2016,160 1984,160 1952,160 1952,192 1984,192 1984,224 1952,224 1952,256 1984,256 2016,256 2016,224 2048,224 2048,256 2048,288 2016,288 2016,320 2048,320 2048,352 2048,384 2016,384 2016,352 1984,352 1984,384 1952,384 1952,352 1952,320 1984,320 1984,288 1952,288 1920,288 1920,320 1888,320 1888,288 1856,288 1824,288 1824,320 1856,320 1856,352 1824,352 1824,384 1856,384 1888,384 1888,352 1920,352 1920,384 1920,416 1920,448 1888,448 1888,416 1856,416 1824,416 1824,448 1856,448 1856,480 1824,480 1824,512 1856,512 1888,512 1888,480 1920,480 1920,512 1952,512 1984,512 1984,480 1952,480 1952,448 1952,416 1984,416 1984,448 2016,448 2016,416 2048,416 2048,448 2048,480 2016,480 2016,512 2048,512 2048,544 2048,576 2016,576 2016,544 1984,544 1952,544 1952,576 1984,576 1984,608 1952,608 1952,640 1984,640 2016,640 2016,608 2048,608 2048,640 2048,672 2016,672 2016,704 2048,704 2048,736 2048,768 2016,768 2016,736 1984,736 1984,768 1952,768 1952,736 1952,704 1984,704 1984,672 1952,672 1920,672 1888,672 1888,704 1920,704 1920,736 1920,768 1888,768 1888,736 1856,736 1856,768 1824,768 1824,736 1824,704 1856,704 1856,672 1824,672 1824,640 1824,608 1856,608 1856,640 1888,640 1920,640 1920,608 1888,608 1888,576 1920,576 1920,544 1888,544 1856,544 1856,576 1824,576 1824,544 1792,544 1760,544 1760,576 1792,576 1792,608 1792,640 1760,640 1760,608 1728,608 1728,640 1696,640 1696,608 1696,576 1728,576 1728,544 1696,544 1664,544 1664,576 1632,576 1632,544 1600,544 1568,544 1568,576 1600,576 1600,608 1568,608 1568,640 1600,640 1632,640 1632,608 1664,608 1664,640 1664,672 1664,704 1632,704 1632,672 1600,672 1568,672 1568,704 1600,704 1600,736 1568,736 1568,768 1600,768 1632,768 1632,736 1664,736 1664,768 1696,768 1728,768 1728,736 1696,736 1696,704 1696,672 1728,672 1728,704 1760,704 1760,672 1792,672 1792,704 1792,736 1760,736 1760,768 1792,768 1792,800 1760,800 1760,832 1792,832 1792,864 1792,896 1760,896 1760,864 1728,864 1728,896 1696,896 1696,864 1696,832 1728,832 1728,800 1696,800 1664,800 1664,832 1632,832 1632,800 1600,800 1568,800 1568,832 1600,832 1600,864 1568,864 1568,896 1600,896 1632,896 1632,864 1664,864 1664,896 1664,928 1664,960 1632,960 1632,928 1600,928 1568,928 1568,960 1600,960 1600,992 1568,992 1568,1024 1600,1024 1632,1024 1632,992 1664,992 1664,1024 1696,1024 1728,1024 1728,992 1696,992 1696,960 1696,928 1728,928 1728,960 1760,960 1760,928 1792,928 1792,960 1792,992 1760,992 1760,1024 1792,1024 1824,1024 1824,992 1856,992 1856,1024 1888,1024 1920,1024 1920,992 1888,992 1888,960 1920,960 1920,928 1888,928 1856,928 1856,960 1824,960 1824,928 1824,896 1856,896 1856,864 1824,864 1824,832 1824,800 1856,800 1856,832 1888,832 1888,800 1920,800 1920,832 1920,864 1888,864 1888,896 1920,896 1952,896 1984,896 1984,864 1952,864 1952,832 1952,800 1984,800 1984,832 2016,832 2016,800 2048,800 2048,832 2048,864 2016,864 2016,896 2048,896 2048,928 2048,960 2016,960 2016,928 1984,928 1952,928 1952,960 1984,960 1984,992 1952,992 1952,1024 1984,1024 2016,1024 2016,992 2048,992 2048,1024 2048,1056 2016,1056 2016,1088 2048,1088 2048,1120 2048,1152 2016,1152 2016,1120 1984,1120 1984,1152 1952,1152 1952,1120 1952,1088 1984,1088 1984,1056 1952,1056 1920,1056 1920,1088 1888,1088 1888,1056 1856,1056 1824,1056 1824,1088 1856,1088 1856,1120 1824,1120 1824,1152 1856,1152 1888,1152 1888,1120 1920,1120 1920,1152 1920,1184 1920,1216 1888,1216 1888,1184 1856,1184 1824,1184 1824,1216 1856,1216 1856,1248 1824,1248 1824,1280 1856,1280 1888,1280 1888,1248 1920,1248 1920,1280 1952,1280 1984,1280 1984,1248 1952,1248 1952,1216 1952,1184 1984,1184 1984,1216 2016,1216 2016,1184 2048,1184 2048,1216 2048,1248 2016,1248 2016,1280 2048,1280 2048,1312 2048,1344 2016,1344 2016,1312 1984,1312 1952,1312 1952,1344 1984,1344 1984,1376 1952,1376 1952,1408 1984,1408 2016,1408 2016,1376 2048,1376 2048,1408 2048,1440 2016,1440 2016,1472 2048,1472 2048,1504 2048,1536 2016,1536 2016,1504 1984,1504 1984,1536 1952,1536 1952,1504 1952,1472 1984,1472 1984,1440 1952,1440 1920,1440 1888,1440 1888,1472 1920,1472 1920,1504 1920,1536 1888,1536 1888,1504 1856,1504 1856,1536 1824,1536 1824,1504 1824,1472 1856,1472 1856,1440 1824,1440 1824,1408 1824,1376 1856,1376 1856,1408 1888,1408 1920,1408 1920,1376 1888,1376 1888,1344 1920,1344 1920,1312 1888,1312 1856,1312 1856,1344 1824,1344 1824,1312 1792,1312 1792,1344 1760,1344 1760,1312 1728,1312 1696,1312 1696,1344 1728,1344 1728,1376 1696,1376 1696,1408 1728,1408 1760,1408 1760,1376 1792,1376 1792,1408 1792,1440 1760,1440 1760,1472 1792,1472 1792,1504 1792,1536 1760,1536 1760,1504 1728,1504 1728,1536 1696,1536 1696,1504 1696,1472 1728,1472 1728,1440 1696,1440 1664,1440 1632,1440 1632,1472 1664,1472 1664,1504 1664,1536 1632,1536 1632,1504 1600,1504 1600,1536 1568,1536 1568,1504 1568,1472 1600,1472 1600,1440 1568,1440 1568,1408 1568,1376 1600,1376 1600,1408 1632,1408 1664,1408 1664,1376 1632,1376 1632,1344 1664,1344 1664,1312 1632,1312 1600,1312 1600,1344 1568,1344 1568,1312 1568,1280 1600,1280 1600,1248 1568,1248 1568,1216 1568,1184 1600,1184 1600,1216 1632,1216 1632,1184 1664,1184 1664,1216 1664,1248 1632,1248 1632,1280 1664,1280 1696,1280 1696,1248 1728,1248 1728,1280 1760,1280 1792,1280 1792,1248 1760,1248 1760,1216 1792,1216 1792,1184 1760,1184 1728,1184 1728,1216 1696,1216 1696,1184 1696,1152 1696,1120 1728,1120 1728,1152 1760,1152 1792,1152 1792,1120 1760,1120 1760,1088 1792,1088 1792,1056 1760,1056 1728,1056 1728,1088 1696,1088 1696,1056 1664,1056 1632,1056 1632,1088 1664,1088 1664,1120 1664,1152 1632,1152 1632,1120 1600,1120 1600,1152 1568,1152 1568,1120 1568,1088 1600,1088 1600,1056 1568,1056 1536,1056 1536,1088 1504,1088 1504,1056 1472,1056 1440,1056 1440,1088 1472,1088 1472,1120 1440,1120 1440,1152 1472,1152 1504,1152 1504,1120 1536,1120 1536,1152 1536,1184 1504,1184 1504,1216 1536,1216 1536,1248 1536,1280 1504,1280 1504,1248 1472,1248 1472,1280 1440,1280 1440,1248 1440,1216 1472,1216 1472,1184 1440,1184 1408,1184 1376,1184 1376,1216 1408,1216 1408,1248 1408,1280 1376,1280 1376,1248 1344,1248 1344,1280 1312,1280 1312,1248 1312,1216 1344,1216 1344,1184 1312,1184 1312,1152 1312,1120 1344,1120 1344,1152 1376,1152 1408,1152 1408,1120 1376,1120 1376,1088 1408,1088 1408,1056 1376,1056 1344,1056 1344,1088 1312,1088 1312,1056 1280,1056 1248,1056 1248,1088 1280,1088 1280,1120 1280,1152 1248,1152 1248,1120 1216,1120 1216,1152 1184,1152 1184,1120 1184,1088 1216,1088 1216,1056 1184,1056 1152,1056 1152,1088 1120,1088 1120,1056 1088,1056 1056,1056 1056,1088 1088,1088 1088,1120 1056,1120 1056,1152 1088,1152 1120,1152 1120,1120 1152,1120 1152,1152 1152,1184 1152,1216 1120,1216 1120,1184 1088,1184 1056,1184 1056,1216 1088,1216 1088,1248 1056,1248 1056,1280 1088,1280 1120,1280 1120,1248 1152,1248 1152,1280 1184,1280 1216,1280 1216,1248 1184,1248 1184,1216 1184,1184 1216,1184 1216,1216 1248,1216 1248,1184 1280,1184 1280,1216 1280,1248 1248,1248 1248,1280 1280,1280 1280,1312 1248,1312 1248,1344 1280,1344 1280,1376 1280,1408 1248,1408 1248,1376 1216,1376 1216,1408 1184,1408 1184,1376 1184,1344 1216,1344 1216,1312 1184,1312 1152,1312 1152,1344 1120,1344 1120,1312 1088,1312 1056,1312 1056,1344 1088,1344 1088,1376 1056,1376 1056,1408 1088,1408 1120,1408 1120,1376 1152,1376 1152,1408 1152,1440 1152,1472 1120,1472 1120,1440 1088,1440 1056,1440 1056,1472 1088,1472 1088,1504 1056,1504 1056,1536 1088,1536 1120,1536 1120,1504 1152,1504 1152,1536 1184,1536 1216,1536 1216,1504 1184,1504 1184,1472 1184,1440 1216,1440 1216,1472 1248,1472 1248,1440 1280,1440 1280,1472 1280,1504 1248,1504 1248,1536 1280,1536 1312,1536 1312,1504 1344,1504 1344,1536 1376,1536 1408,1536 1408,1504 1376,1504 1376,1472 1408,1472 1408,1440 1376,1440 1344,1440 1344,1472 1312,1472 1312,1440 1312,1408 1344,1408 1344,1376 1312,1376 1312,1344 1312,1312 1344,1312 1344,1344 1376,1344 1376,1312 1408,1312 1408,1344 1408,1376 1376,1376 1376,1408 1408,1408 1440,1408 1472,1408 1472,1376 1440,1376 1440,1344 1440,1312 1472,1312 1472,1344 1504,1344 1504,1312 1536,1312 1536,1344 1536,1376 1504,1376 1504,1408 1536,1408 1536,1440 1536,1472 1504,1472 1504,1440 1472,1440 1440,1440 1440,1472 1472,1472 1472,1504 1440,1504 1440,1536 1472,1536 1504,1536 1504,1504 1536,1504 1536,1536 1536,1568 1536,1600 1504,1600 1504,1568 1472,1568 1440,1568 1440,1600 1472,1600 1472,1632 1440,1632 1440,1664 1472,1664 1504,1664 1504,1632 1536,1632 1536,1664 1536,1696 1504,1696 1504,1728 1536,1728 1536,1760 1536,1792 1504,1792 1504,1760 1472,1760 1472,1792 1440,1792 1440,1760 1440,1728 1472,1728 1472,1696 1440,1696 1408,1696 1376,1696 1376,1728 1408,1728 1408,1760 1408,1792 1376,1792 1376,1760 1344,1760 1344,1792 1312,1792 1312,1760 1312,1728 1344,1728 1344,1696 1312,1696 1312,1664 1312,1632 1344,1632 1344,1664 1376,1664 1408,1664 1408,1632 1376,1632 1376,1600 1408,1600 1408,1568 1376,1568 1344,1568 1344,1600 1312,1600 1312,1568 1280,1568 1248,1568 1248,1600 1280,1600 1280,1632 1280,1664 1248,1664 1248,1632 1216,1632 1216,1664 1184,1664 1184,1632 1184,1600 1216,1600 1216,1568 1184,1568 1152,1568 1152,1600 1120,1600 1120,1568 1088,1568 1056,1568 1056,1600 1088,1600 1088,1632 1056,1632 1056,1664 1088,1664 1120,1664 1120,1632 1152,1632 1152,1664 1152,1696 1152,1728 1120,1728 1120,1696 1088,1696 1056,1696 1056,1728 1088,1728 1088,1760 1056,1760 1056,1792 1088,1792 1120,1792 1120,1760 1152,1760 1152,1792 1184,1792 1216,1792 1216,1760 1184,1760 1184,1728 1184,1696 1216,1696 1216,1728 1248,1728 1248,1696 1280,1696 1280,1728 1280,1760 1248,1760 1248,1792 1280,1792 1280,1824 1248,1824 1248,1856 1280,1856 1280,1888 1280,1920 1248,1920 1248,1888 1216,1888 1216,1920 1184,1920 1184,1888 1184,1856 1216,1856 1216,1824 1184,1824 1152,1824 1152,1856 1120,1856 1120,1824 1088,1824 1056,1824 1056,1856 1088,1856 1088,1888 1056,1888 1056,1920 1088,1920 1120,1920 1120,1888 1152,1888 1152,1920 1152,1952 1152,1984 1120,1984 1120,1952 1088,1952 1056,1952 1056,1984 1088,1984 1088,2016 1056,2016 1056,2048 1088,2048 1120,2048 1120,2016 1152,2016 1152,2048 1184,2048 1216,2048 1216,2016 1184,2016 1184,1984 1184,1952 1216,1952 1216,1984 1248,1984 1248,1952 1280,1952 1280,1984 1280,2016 1248,2016 1248,2048 1280,2048 1312,2048 1312,2016 1344,2016 1344,2048 1376,2048 1408,2048 1408,2016 1376,2016 1376,1984 1408,1984 1408,1952 1376,1952 1344,1952 1344,1984 1312,1984 1312,1952 1312,1920 1344,1920 1344,1888 1312,1888 1312,1856 1312,1824 1344,1824 1344,1856 1376,1856 1376,1824 1408,1824 1408,1856 1408,1888 1376,1888 1376,1920 1408,1920 1440,1920 1472,1920 1472,1888 1440,1888 1440,1856 1440,1824 1472,1824 1472,1856 1504,1856 1504,1824 1536,1824 1536,1856 1536,1888 1504,1888 1504,1920 1536,1920 1536,1952 1536,1984 1504,1984 1504,1952 1472,1952 1440,1952 1440,1984 1472,1984 1472,2016 1440,2016 1440,2048 1472,2048 1504,2048 1504,2016 1536,2016 1536,2048 1568,2048 1600,2048 1600,2016 1568,2016 1568,1984 1568,1952 1600,1952 1600,1984 1632,1984 1632,1952 1664,1952 1664,1984 1664,2016 1632,2016 1632,2048 1664,2048 1696,2048 1696,2016 1728,2016 1728,2048 1760,2048 1792,2048 1792,2016 1760,2016 1760,1984 1792,1984 1792,1952 1760,1952 1728,1952 1728,1984 1696,1984 1696,1952 1696,1920 1696,1888 1728,1888 1728,1920 1760,1920 1792,1920 1792,1888 1760,1888 1760,1856 1792,1856 1792,1824 1760,1824 1728,1824 1728,1856 1696,1856 1696,1824 1664,1824 1632,1824 1632,1856 1664,1856 1664,1888 1664,1920 1632,1920 1632,1888 1600,1888 1600,1920 1568,1920 1568,1888 1568,1856 1600,1856 1600,1824 1568,1824 1568,1792 1568,1760 1600,1760 1600,1792 1632,1792 1664,1792 1664,1760 1632,1760 1632,1728 1664,1728 1664,1696 1632,1696 1600,1696 1600,1728 1568,1728 1568,1696 1568,1664 1600,1664 1600,1632 1568,1632 1568,1600 1568,1568 1600,1568 1600,1600 1632,1600 1632,1568 1664,1568 1664,1600 1664,1632 1632,1632 1632,1664 1664,1664 1696,1664 1728,1664 1728,1632 1696,1632 1696,1600 1696,1568 1728,1568 1728,1600 1760,1600 1760,1568 1792,1568 1792,1600 1792,1632 1760,1632 1760,1664 1792,1664 1792,1696 1792,1728 1760,1728 1760,1696 1728,1696 1696,1696 1696,1728 1728,1728 1728,1760 1696,1760 1696,1792 1728,1792 1760,1792 1760,1760 1792,1760 1792,1792 1824,1792 1824,1760 1856,1760 1856,1792 1888,1792 1920,1792 1920,1760 1888,1760 1888,1728 1920,1728 1920,1696 1888,1696 1856,1696 1856,1728 1824,1728 1824,1696 1824,1664 1856,1664 1856,1632 1824,1632 1824,1600 1824,1568 1856,1568 1856,1600 1888,1600 1888,1568 1920,1568 1920,1600 1920,1632 1888,1632 1888,1664 1920,1664 1952,1664 1984,1664 1984,1632 1952,1632 1952,1600 1952,1568 1984,1568 1984,1600 2016,1600 2016,1568 2048,1568 2048,1600 2048,1632 2016,1632 2016,1664 2048,1664 2048,1696 2048,1728 2016,1728 2016,1696 1984,1696 1952,1696 1952,1728 1984,1728 1984,1760 1952,1760 1952,1792 1984,1792 2016,1792 2016,1760 2048,1760 2048,1792 2048,1824 2016,1824 2016,1856 2048,1856 2048,1888 2048,1920 2016,1920 2016,1888 1984,1888 1984,1920 1952,1920 1952,1888 1952,1856 1984,1856 1984,1824 1952,1824 1920,1824 1920,1856 1888,1856 1888,1824 1856,1824 1824,1824 1824,1856 1856,1856 1856,1888 1824,1888 1824,1920 1856,1920 1888,1920 1888,1888 1920,1888 1920,1920 1920,1952 1920,1984 1888,1984 1888,1952 1856,1952 1824,1952 1824,1984 1856,1984 1856,2016 1824,2016 1824,2048 1856,2048 1888,2048 1888,2016 1920,2016 1920,2048 1952,2048 1984,2048 1984,2016 1952,2016 1952,1984 1952,1952 1984,1952 1984,1984 2016,1984 2016,1952 2048,1952 2048,1984 2048,2016 2016,2016 2016,2048 2048,2048" stroke="black" stroke-width="2" fill="none" />
</svg>
